<svg width="70" height="70" viewBox="0 0 70 70" fill="none" xmlns="http://www.w3.org/2000/svg">
<path d="M7.66025 45.9255C5.24539 45.9255 3.36497 45.2355 2.01898 43.8556C0.672994 42.4757 0 40.5352 0 38.0341V8.40889C0 5.99403 0.6532 4.09664 1.9596 2.71672C3.30559 1.3368 5.16622 0.646837 7.54149 0.646837H25.9498C27.4938 0.646837 28.2657 1.3368 28.2657 2.71672C28.2657 3.32043 28.0678 3.79478 27.6719 4.13976C27.276 4.48474 26.702 4.65724 25.9498 4.65724H7.60087C6.65076 4.65724 5.8788 5.00222 5.28498 5.69217C4.73075 6.38214 4.45363 7.28771 4.45363 8.40889V20.7635H21.4368C22.9808 20.7635 23.7527 21.4535 23.7527 22.8334C23.7527 23.4802 23.535 23.9761 23.0995 24.3211C22.7036 24.6661 22.1494 24.8386 21.4368 24.8386H4.45363V38.1634C4.45363 39.2846 4.73075 40.1902 5.28498 40.8802C5.8788 41.5701 6.65076 41.9151 7.60087 41.9151H27.2562C28.8002 41.9151 29.5721 42.5835 29.5721 43.9203C29.5721 44.5671 29.3544 45.063 28.9189 45.408C28.5231 45.753 27.9688 45.9255 27.2562 45.9255H7.66025Z" fill="white"/>
<path d="M54.5014 46.5723C50.7009 46.5723 47.1974 45.8824 43.9908 44.5025C40.8237 43.0794 38.3495 41.1389 36.5681 38.6809C36.2513 38.2497 36.093 37.7969 36.093 37.3226C36.093 36.7188 36.3899 36.1367 36.9837 35.5761C37.3004 35.3174 37.6369 35.188 37.9932 35.188C38.7058 35.188 39.3392 35.5545 39.8934 36.2876C41.5165 38.2281 43.5553 39.7374 46.0098 40.8155C48.5038 41.8504 51.3343 42.3679 54.5014 42.3679C57.9851 42.3679 60.6771 41.6779 62.5773 40.298C64.4775 38.875 65.4276 36.8698 65.4276 34.2824C65.4276 32.04 64.4973 30.2289 62.6367 28.849C60.8156 27.4691 57.708 26.2401 53.3137 25.162C47.5735 23.7821 43.4365 22.0572 40.9029 19.9873C38.4089 17.8743 37.1619 15.0929 37.1619 11.6431C37.1619 8.06391 38.5474 5.23939 41.3186 3.16951C44.1293 1.0565 47.91 0 52.6605 0C56.263 0 59.5092 0.689961 62.3991 2.06988C65.3286 3.4498 67.407 5.30407 68.6342 7.63269C68.8717 8.06392 68.9905 8.47358 68.9905 8.86168C68.9905 9.55164 68.654 10.1554 67.981 10.6728C67.7039 10.8453 67.3872 10.9316 67.0309 10.9316C66.16 10.9316 65.487 10.565 65.0119 9.83194C63.8639 8.02079 62.2408 6.64087 60.1426 5.69217C58.0445 4.70036 55.5504 4.20445 52.6605 4.20445C45.3368 4.20445 41.6749 6.68399 41.6749 11.6431C41.6749 13.1524 42.051 14.4245 42.8031 15.4594C43.5553 16.4512 44.7627 17.3568 46.4254 18.1761C48.1277 18.9524 50.4832 19.7286 53.4919 20.5048C59.3509 22.0141 63.567 23.8468 66.1402 26.0029C68.7134 28.1159 70 30.8757 70 34.2824C70 38.0772 68.5946 41.0742 65.7839 43.2735C63.0127 45.4727 59.2519 46.5723 54.5014 46.5723Z" fill="white"/>
<path d="M3.35507 70C3.01857 70 2.75136 69.8922 2.55342 69.6766C2.35548 69.4394 2.25651 69.116 2.25651 68.7063V48.0075C2.25651 47.5978 2.35548 47.2852 2.55342 47.0696C2.75136 46.8324 3.01857 46.7138 3.35507 46.7138C3.71136 46.7138 3.98848 46.8324 4.18642 47.0696C4.38436 47.3068 4.48333 47.6194 4.48333 48.0075V68.7063C4.48333 69.0944 4.38436 69.4071 4.18642 69.6442C3.98848 69.8814 3.71136 70 3.35507 70Z" fill="white"/>
<path d="M16.9795 70C14.525 70 12.5852 69.2777 11.1601 67.8331C9.7547 66.3669 9.05201 64.3725 9.05201 61.8498C9.05201 60.2543 9.35882 58.8313 9.97243 57.5807C10.6058 56.3086 11.5164 55.3168 12.704 54.6053C13.9114 53.8722 15.3564 53.5056 17.0389 53.5056C18.464 53.5056 19.6715 53.7967 20.6612 54.3789C21.6706 54.961 22.5614 55.7696 23.3333 56.8045L23.363 46.4228C23.363 46.0131 23.4521 45.7005 23.6302 45.4848C23.8282 45.2477 24.1053 45.1291 24.4616 45.1291C24.7981 45.1291 25.0554 45.2477 25.2336 45.4848C25.4315 45.7005 25.5305 46.0131 25.5305 46.4228V68.7063C25.5305 69.116 25.4315 69.4394 25.2336 69.6766C25.0554 69.8922 24.7981 70 24.4616 70C24.1251 70 23.8579 69.8922 23.6599 69.6766C23.462 69.4394 23.363 69.116 23.363 68.7063V66.6364C22.6702 67.7361 21.7795 68.577 20.6908 69.1591C19.622 69.7197 18.3849 70 16.9795 70ZM17.1576 67.9625C19.0776 67.9625 20.5919 67.4126 21.7003 66.313C22.8088 65.1918 23.363 63.6718 23.363 61.7528C23.363 60.4807 23.076 59.3811 22.502 58.4539C21.9478 57.5052 21.1956 56.7829 20.2455 56.287C19.3152 55.7911 18.2958 55.5432 17.1873 55.5432C15.3267 55.5432 13.8718 56.1253 12.8228 57.2896C11.7737 58.4324 11.2491 59.9525 11.2491 61.8498C11.2491 63.8766 11.7638 65.4075 12.7931 66.4424C13.8223 67.4558 15.2772 67.9625 17.1576 67.9625Z" fill="white"/>
<path d="M36.9315 70C34.3583 70 32.369 69.2777 30.9637 67.8331C29.5583 66.3885 28.8556 64.3402 28.8556 61.6881C28.8556 59.1439 29.5682 57.1495 30.9934 55.7049C32.4185 54.2387 34.3682 53.5056 36.8425 53.5056C38.3666 53.5056 39.7225 53.7751 40.9101 54.3142C42.0977 54.8316 43.0182 55.5755 43.6714 56.5458C44.3444 57.4945 44.6809 58.5833 44.6809 59.8123C44.6809 60.7179 44.4433 61.4186 43.9683 61.9145C43.513 62.4104 42.8796 62.6584 42.0681 62.6584H31.0824C31.0824 64.3186 31.5971 65.6231 32.6264 66.5718C33.6556 67.4989 35.0907 67.9625 36.9315 67.9625C38.0598 67.9625 39.0297 67.8331 39.8412 67.5744C40.6528 67.2941 41.4149 66.8521 42.1274 66.2483C42.5035 65.9034 42.8103 65.7309 43.0479 65.7309C43.226 65.7309 43.3943 65.8171 43.5526 65.9896C43.8297 66.2483 43.9683 66.5179 43.9683 66.7982C43.9683 67.0138 43.8495 67.2509 43.612 67.5097C42.8004 68.3506 41.8503 68.9758 40.7617 69.3855C39.673 69.7952 38.3963 70 36.9315 70ZM41.4149 60.7502C41.7711 60.7502 42.0384 60.6748 42.2165 60.5238C42.3947 60.3513 42.4837 60.0495 42.4837 59.6183C42.4837 58.842 42.2462 58.1413 41.7711 57.516C41.2961 56.8907 40.6231 56.4056 39.7522 56.0606C38.901 55.7157 37.9311 55.5432 36.8425 55.5432C35.0808 55.5432 33.6853 56.0175 32.656 56.9662C31.6466 57.8934 31.1418 59.1547 31.1418 60.7502H41.4149Z" fill="white"/>
<path d="M52.7197 70C50.7799 70 49.2557 69.5364 48.1473 68.6093C47.0586 67.6822 46.5143 66.3993 46.5143 64.7606C46.5143 63.1435 47.0883 61.8606 48.2363 60.9119C49.4042 59.9632 50.9877 59.4889 52.9869 59.4889C54.1547 59.4889 55.184 59.6614 56.0747 60.0064C56.9853 60.3513 57.6879 60.8149 58.1828 61.3971V59.3272C58.1828 58.0982 57.8067 57.1603 57.0545 56.5134C56.3222 55.8666 55.2434 55.5432 53.8182 55.5432C51.9774 55.5432 50.384 56.0175 49.038 56.9662C48.7015 57.1818 48.4244 57.2896 48.2066 57.2896C48.0087 57.2896 47.8108 57.2034 47.6128 57.0309C47.3951 56.8368 47.2862 56.5889 47.2862 56.287C47.2862 55.9636 47.4149 55.6941 47.6722 55.4785C48.3848 54.8748 49.2854 54.4004 50.3741 54.0554C51.4825 53.6889 52.6108 53.5056 53.7589 53.5056C55.857 53.5056 57.4801 54.0231 58.6282 55.058C59.796 56.093 60.3799 57.5484 60.3799 59.4242V68.7387C60.3799 69.5796 60.0236 70 59.311 70C58.9943 70 58.737 69.8922 58.5391 69.6766C58.3411 69.4394 58.2422 69.1375 58.2422 68.771V67.6067C57.015 69.2022 55.1741 70 52.7197 70ZM52.9869 68.0271C54.5308 68.0271 55.7877 67.7145 56.7576 67.0892C57.7275 66.4424 58.2125 65.6123 58.2125 64.5989C58.2125 63.5855 57.7572 62.8093 56.8467 62.2703C55.956 61.7097 54.6892 61.4294 53.0463 61.4294C51.6607 61.4294 50.5918 61.7205 49.8397 62.3026C49.0875 62.8632 48.7114 63.6825 48.7114 64.7606C48.7114 65.8171 49.0776 66.6257 49.81 67.1863C50.5423 67.7468 51.6013 68.0271 52.9869 68.0271Z" fill="white"/>
<path d="M66.0857 70C65.7492 70 65.482 69.8922 65.284 69.6766C65.1059 69.4394 65.0168 69.116 65.0168 68.7063V46.4228C65.0168 46.0131 65.1059 45.7005 65.284 45.4848C65.482 45.2477 65.7492 45.1291 66.0857 45.1291C66.4222 45.1291 66.6894 45.2477 66.8873 45.4848C67.0853 45.7005 67.1842 46.0131 67.1842 46.4228V68.7063C67.1842 69.0944 67.0853 69.4071 66.8873 69.6442C66.7092 69.8814 66.442 70 66.0857 70Z" fill="white"/>
</svg>
